<?xml version="1.0" encoding="UTF-8" standalone="no"?>
<svg
   id="Ebene_1"
   data-name="Ebene 1"
   viewBox="0 0 244.59 263.03"
   version="1.1"
   sodipodi:docname="Loskrev-Logo.svg"
   inkscape:version="1.4.2 (f4327f4, 2025-05-13)"
   inkscape:export-filename="Loskrev-Logo.png"
   inkscape:export-xdpi="96"
   inkscape:export-ydpi="96"
   xmlns:inkscape="http://www.inkscape.org/namespaces/inkscape"
   xmlns:sodipodi="http://sodipodi.sourceforge.net/DTD/sodipodi-0.dtd"
   xmlns="http://www.w3.org/2000/svg"
   xmlns:svg="http://www.w3.org/2000/svg">
  <sodipodi:namedview
     id="namedview6"
     pagecolor="#ffffff"
     bordercolor="#000000"
     borderopacity="0.25"
     inkscape:showpageshadow="2"
     inkscape:pageopacity="0.0"
     inkscape:pagecheckerboard="0"
     inkscape:deskcolor="#d1d1d1"
     inkscape:zoom="3.0680911"
     inkscape:cx="84.254343"
     inkscape:cy="105.76609"
     inkscape:window-width="1920"
     inkscape:window-height="1009"
     inkscape:window-x="-8"
     inkscape:window-y="-8"
     inkscape:window-maximized="1"
     inkscape:current-layer="Ebene_1"
     inkscape:export-bgcolor="#00000000" />
  <defs
     id="defs1">
    <style
       id="style1">
      .cls-1 {
        stroke: #9a0004;
        stroke-miterlimit: 10;
      }

      .cls-1, .cls-2 {
        fill: #9a0004;
      }

      .cls-3 {
        fill: #00111c;
      }
    </style>
  </defs>
  <path
     class="cls-3"
     d="m 54.943361,9.0323246 c 0,0 8.921291,1.0833674 8.374897,20.5462884 0,0 0.273197,8.374897 -2.43051,16.759214 0,0 -6.735716,17.296188 -1.742808,38.379449 l 6.340052,34.328594 19.999894,-17.56938 c 0,0 29.674834,-34.300337 37.446814,-37.43739 0,0 21.1492,-9.298114 27.15953,-11.219913 L 177.92905,37.95351 c 0,0 5.94439,-3.787074 16.21282,-17.569385 0,0 9.32638,-7.94155 11.3518,-9.458263 0,0 2.8827,-2.9203807 5.13422,-3.2406805 0,0 6.49078,-0.81017 10.00466,3.2406805 0,0 4.86102,2.976903 5.68061,10.54163 0,0 2.43051,10.541631 -4.59725,16.212821 0,0 -14.59248,13.066346 -36.7591,25.586299 l -30.26833,15.22366 c 0,0 -19.46292,8.374897 -25.40731,14.328704 l -13.24534,9.731464 8.3749,7.56472 c 0,0 4.32405,9.45827 8.11112,11.3518 0,0 11.625,12.16198 15.13887,19.18973 l 13.24534,13.51853 c 0,0 17.03241,11.07861 18.91653,15.13888 0,0 21.62023,13.78231 21.89343,15.40265 0,0 10.00466,0.81017 10.81483,8.11112 0,0 2.7037,7.83792 -4.86102,12.16197 0,0 -7.83793,7.30095 -16.75922,0 l -18.37955,-18.10636 -13.24534,-12.97214 -13.51853,-10.26843 c 0,0 -9.73146,-7.56473 -11.07861,-10.26844 l -27.83782,-31.89808 -5.40741,-7.02776 -33.245231,28.11102 c 0,0 1.62034,12.97214 -4.324047,47.83771 l 4.597244,37.56928 c 0,0 12.435167,-2.70371 28.647988,1.34714 h 32.161866 c 0,0 28.43131,-0.37682 35.13877,-3.78707 0,0 61.35625,-19.46292 67.57383,-9.73146 0,0 12.43517,8.37489 0,15.94904 0,0 -12.16197,6.21758 -21.62024,1.62034 0,0 -38.10625,5.13422 -47.30074,8.92129 0,0 -30.54152,8.6481 -54.05529,5.13422 l -18.652753,0.83843 c 0,0 -34.055402,9.15681 -37.569279,6.7263 0,0 -13.78231,0.27319 -13.245337,-22.43041 0,0 15.949044,-45.6804 14.055507,-77.30529 0,0 -7.056015,4.32405 -14.074348,11.3518 0,0 -8.90245,14.05551 -15.120034,17.03241 0,0 -9.73146,5.68061 -15.4026503,-2.9769 0,0 -6.2175838,-10.00466 3.7870733,-17.29619 l 36.485912,-33.24523 c 0,0 -22.166628,-84.05985 -0.273196,-118.388449 0,0 2.873277,-4.2957852 5.944386,-2.7037069 z"
     id="path1"
     style="display:inline;stroke:#ffffff;stroke-width:6.5002;stroke-dasharray:none;stroke-opacity:1;paint-order:markers stroke fill" />
  <path
     class="cls-2"
     d="m 89.064707,168.09884 h 0.06594 c 1.610919,0.0283 4.503038,3.12764 6.00091,5.86902 l 0.141309,0.26378 0.178991,0.24494 c 1.554396,2.20441 1.77107,4.64434 1.799331,4.9458 v 0.21667 c 0,0 0.05652,0.35799 0.05652,0.35799 0.894955,6.05743 0.282617,15.69469 0.0471,18.7658 l -3.39141,6.39657 -0.178991,0.34856 -0.122467,0.3674 c -0.546394,1.6015 -3.947224,1.72397 -4.974067,1.72397 -0.6406,0 -1.186994,-0.0377 -1.563817,-0.0754 -1.036264,-0.52756 -1.30004,-1.19642 -1.365984,-1.47904 v -0.18841 c 0,0 -0.09421,-0.35798 -0.09421,-0.35798 l -2.421089,-10.89961 -0.09421,-0.43335 -0.169571,-0.40508 c -0.668861,-1.61092 -0.772487,-7.38574 -0.452188,-11.63442 1.328302,-10.03292 3.815336,-13.18882 4.36173,-13.77289 l 0.178991,-0.0942 0.01884,-0.0188 c 0.423926,-0.0848 1.177573,-0.16015 2.006584,-0.16015 m -0.02826,-4.92696 c -0.697123,0 -3.758812,0.0565 -4.813917,0.98916 0,0 -4.682029,2.34572 -6.669772,17.47518 0,0 -0.81017,10.18365 0.81017,14.0555 l 2.42109,10.89962 c 0,0 0.282617,3.96606 4.964646,5.76539 0,0 1.205834,0.19784 2.873277,0.19784 3.212419,0 8.167645,-0.74423 9.646676,-5.06828 l 3.871861,-7.30095 c 0,0 1.16815,-12.97214 0,-20.90427 0,0 -0.0942,-3.96606 -2.703709,-7.65893 0,0 -4.503038,-8.3749 -10.268434,-8.4691 0,0 -0.0471,0 -0.141309,0 v 0 z"
     id="path2"
     style="display:inline;stroke:#ffffff;stroke-width:6.5002;stroke-dasharray:none;stroke-opacity:1;paint-order:markers stroke fill" />
  <path
     class="cls-2"
     d="m 121.7447,208.87112 c -0.59349,0 -1.18699,-0.0659 -1.76164,-0.21667 -3.06169,-0.81959 -5.57699,-2.89212 -6.56615,-3.78708 l -3.11821,-1.14931 1.71454,-4.63492 4.10738,1.51671 0.38624,0.38624 c 0,0 2.27036,2.23268 4.75739,2.90154 1.25294,0.32972 3.8907,-0.81959 5.59583,-1.90296 1.04568,-1.93121 2.98632,-6.45309 1.99716,-9.16622 -0.23551,-0.6406 -0.74422,-1.5544 -2.45877,-2.14789 -9.21333,-3.16532 -14.14971,-7.02776 -14.35696,-7.18791 l -0.30146,-0.23551 -0.21668,-0.31088 c -0.17899,-0.26378 -4.38999,-6.64151 -0.92321,-15.2425 3.03342,-7.50821 8.50678,-8.28069 10.97497,-7.64009 l 0.16015,0.0471 c 0.26378,0.0848 2.67545,0.92322 6.61325,3.44793 4.99291,3.21242 4.4842,9.10028 4.45594,9.34522 l -2.45878,-0.24494 -2.45877,-0.21667 c 0.009,-0.13189 0.21668,-3.16532 -2.20441,-4.72913 -2.91096,-1.8747 -4.8516,-2.67545 -5.36973,-2.87328 -0.60292,-0.0754 -3.18416,-0.0848 -5.1248,4.70087 -2.11021,5.219 -0.35798,9.18507 0.25436,10.31554 1.18699,0.84785 5.49219,3.72113 12.55763,6.14222 2.71313,0.93263 4.61609,2.7037 5.50162,5.13421 2.07253,5.69946 -2.17615,13.03809 -2.66602,13.84826 l -0.2732,0.45219 -0.43335,0.30146 c -0.83843,0.58407 -4.71029,3.13705 -8.38432,3.13705 z"
     id="path3"
     style="display:inline;stroke:#ffffff;stroke-width:6.5002;stroke-dasharray:none;stroke-opacity:1;paint-order:markers stroke fill" />
  <path
     class="cls-1"
     d="m 199.31377,85.828905 c 0,0 -1.31888,-2.647184 -3.6646,-3.787074 L 180.3313,81.316446 c 0,0 -2.64718,0.05652 -2.93922,1.742808 -0.30146,1.686284 -0.72539,15.317865 0,16.938205 0.72538,1.620341 1.97832,22.044161 0.30146,25.105851 -1.67687,3.06169 5.16248,5.34147 5.16248,5.34147 0,0 2.40224,-1.38483 1.79933,-1.79933 -0.60292,-0.41451 6.12338,-0.30146 6.12338,-0.30146 0,0 6.84876,-2.45877 5.88786,-4.32405 -0.9609,-1.86527 -3.72113,-1.26236 -3.72113,-1.26236 l -3.78707,0.83844 -5.46394,0.24493 c 0,0 0.60292,-13.81057 -0.90438,-16.75921 l 10.74889,0.39566 c 0,0 2.52471,-0.32972 2.82617,-2.79791 0,0 0,-2.34573 -3.41967,-2.10079 l -5.28495,0.48045 c 0,0 -5.94438,0.65944 -5.88786,-1.74281 l 0.12247,-14.771471 c 0,0 6.42483,-0.960899 12.25617,0.357982 l 4.02259,0.527553 c 0,0 1.31888,0.131888 1.13989,-1.61092 z"
     id="path4"
     style="display:inline;stroke:#ffffff;stroke-width:6.5002;stroke-dasharray:none;stroke-opacity:1;paint-order:markers stroke fill" />
  <path
     class="cls-1"
     d="m 203.5813,82.380972 11.55905,44.352098 c 0,0 0.85727,1.57324 2.02542,1.72397 1.16816,0.15073 1.97833,-2.58124 1.97833,-2.58124 0,0 3.31604,-9.3829 3.56098,-16.58965 l 3.54213,-15.92078 c 0,0 2.93923,-7.385736 2.82618,-10.032919 l 1.68628,-5.708873 c 0,0 -0.17899,-0.838431 -1.68628,-1.13989 -1.50729,-0.301459 -1.79933,0.602917 -1.79933,0.602917 l -10.40974,36.033725 c 0,0 -2.57182,-8.59157 -2.98633,-8.64809 0,0 -0.30146,-3.00517 -2.34572,-7.206749 l -4.20158,-13.876517 c 0,0 -1.01743,-3.608083 -2.10079,-3.363147 -1.08337,0.244935 -2.09137,1.045684 -1.6486,2.345724 z"
     id="path5"
     style="display:inline;stroke:#ffffff;stroke-width:6.5002;stroke-dasharray:none;stroke-opacity:1;paint-order:markers stroke fill" />
  <path
     class="cls-1"
     d="m 168.39542,106.5165 c 5.34147,-4.72913 3.43852,-11.022079 1.68629,-13.697524 -0.11305,-0.178991 -2.9298,-4.38057 -8.47853,-7.630671 -6.01033,-3.523297 -13.60332,-0.244935 -13.93304,-0.103626 l -1.19641,0.527552 1.62034,41.036049 0.0754,0.179 c 0.20725,0.19783 0.72538,0.52755 1.81817,0.38624 0.94206,-0.12247 1.33772,-0.34856 1.50729,-0.49929 l 0.10363,-0.37682 -0.40509,-16.13746 c 1.2341,0.15073 4.46536,0.46161 8.03576,0 l 7.92271,17.37155 3.53271,-1.61092 -7.56472,-16.58964 c 2.10079,-0.65944 3.88128,-1.62034 5.28494,-2.86386 z m -17.09835,-0.21667 -0.23552,-0.15073 -0.61233,-17.946209 c 1.99716,-0.621758 6.06685,-1.507293 9.19448,0.329721 4.72914,2.779071 7.17849,6.387154 7.18791,6.405995 0.32972,0.508711 3.06169,5.058852 -1.00801,8.657513 -1.3754,1.21526 -3.33488,2.07253 -5.80307,2.54356 -4.33347,0.81959 -8.68578,0.15073 -8.72346,0.14131 z"
     id="path6"
     style="display:inline;stroke:#ffffff;stroke-width:6.5002;stroke-dasharray:none;stroke-opacity:1;paint-order:markers stroke fill" />
</svg>
